<?xml version="1.0" encoding="UTF-8" standalone="no"?>
<!DOCTYPE svg PUBLIC "-//W3C//DTD SVG 20010904//EN" "http://www.w3.org/TR/2001/REC-SVG-20010904/DTD/svg10.dtd">

<svg xmlns="http://www.w3.org/2000/svg" viewBox="0 0 4142 950">
  <path id="Selection" fill="#3C5EAB" stroke="black" stroke-width="2" d="M 104.00,594.00
           C 104.00,594.00 130.00,610.66 130.00,610.66
             130.00,610.66 169.00,634.57 169.00,634.57
             209.98,658.07 255.85,679.58 303.00,686.13
             309.60,687.05 316.33,687.99 323.00,688.00
             323.00,688.00 341.00,688.00 341.00,688.00
             368.04,687.68 403.75,672.79 402.15,640.72
             401.24,622.71 380.86,609.48 366.00,602.86
             323.62,583.99 286.02,582.66 243.00,570.29
             198.50,557.50 155.57,537.09 121.00,505.83
             83.91,472.29 61.80,427.95 53.59,379.00
             53.59,379.00 50.00,347.00 50.00,347.00
             50.00,347.00 50.00,311.00 50.00,311.00
             50.00,311.00 50.91,299.00 50.91,299.00
             53.29,265.03 61.04,231.37 74.43,200.00
             126.85,77.11 251.29,10.91 380.00,1.91
             380.00,1.91 406.00,0.00 406.00,0.00
             406.00,0.00 449.00,0.00 449.00,0.00
             449.00,0.00 464.00,1.00 464.00,1.00
             481.77,1.21 507.24,4.61 525.00,7.59
             571.32,15.36 616.47,28.65 660.00,46.20
             660.00,46.20 715.00,71.75 715.00,71.75
             718.76,73.63 732.23,79.44 733.19,83.21
             733.85,85.81 635.00,320.00 635.00,320.00
             635.00,320.00 615.00,306.67 615.00,306.67
             615.00,306.67 580.00,285.31 580.00,285.31
             568.91,279.31 551.66,270.83 540.00,266.42
             519.40,258.65 478.82,249.03 457.00,249.00
             457.00,249.00 439.00,249.00 439.00,249.00
             425.03,249.17 403.82,254.31 393.00,263.32
             379.37,274.68 372.75,290.53 384.16,306.00
             394.92,320.58 418.35,330.14 435.00,336.42
             460.23,345.94 486.76,351.52 513.00,357.42
             513.00,357.42 532.00,362.58 532.00,362.58
             532.00,362.58 575.00,373.02 575.00,373.02
             655.62,398.08 718.15,458.65 739.85,541.00
             746.02,564.44 748.04,591.82 748.00,616.00
             748.00,616.00 747.00,635.00 747.00,635.00
             747.00,635.00 745.15,655.00 745.15,655.00
             740.67,692.52 731.18,726.13 714.25,760.00
             697.74,793.02 675.00,822.06 648.00,847.09
             633.02,860.97 617.14,874.14 600.00,885.31
             555.24,914.47 511.08,930.39 459.00,940.80
             443.08,943.98 409.66,948.92 394.00,949.00
             394.00,949.00 376.00,950.00 376.00,950.00
             376.00,950.00 337.00,950.00 337.00,950.00
             337.00,950.00 319.00,949.00 319.00,949.00
             319.00,949.00 308.00,948.09 308.00,948.09
             308.00,948.09 272.00,944.28 272.00,944.28
             222.88,937.81 172.52,924.95 126.00,907.95
             90.51,894.98 56.54,879.05 23.00,861.74
             23.00,861.74 0.00,849.00 0.00,849.00
             0.00,849.00 104.00,594.00 104.00,594.00 Z
           M 856.00,20.00
           C 856.00,20.00 1126.00,20.00 1126.00,20.00
             1126.00,20.00 1261.00,20.00 1261.00,20.00
             1261.00,20.00 1276.00,21.00 1276.00,21.00
             1276.00,21.00 1288.00,21.00 1288.00,21.00
             1288.00,21.00 1301.00,22.00 1301.00,22.00
             1301.00,22.00 1305.00,22.00 1305.00,22.00
             1305.00,22.00 1315.00,22.91 1315.00,22.91
             1315.00,22.91 1373.00,29.59 1373.00,29.59
             1429.17,39.01 1487.86,56.34 1534.00,90.89
             1601.38,141.35 1628.48,211.86 1637.16,293.00
             1637.16,293.00 1639.09,319.00 1639.09,319.00
             1639.09,319.00 1640.00,331.00 1640.00,331.00
             1640.00,331.00 1640.00,370.00 1640.00,370.00
             1640.00,370.00 1639.00,382.00 1639.00,382.00
             1639.00,382.00 1639.00,391.00 1639.00,391.00
             1639.00,391.00 1636.28,415.00 1636.28,415.00
             1628.69,473.18 1612.13,523.22 1572.72,568.00
             1563.79,578.14 1550.05,589.67 1539.00,597.57
             1502.58,623.60 1458.59,638.68 1415.00,647.40
             1338.37,662.73 1259.78,659.00 1182.00,659.00
             1182.00,659.00 1182.00,926.00 1182.00,926.00
             1182.00,926.00 856.00,926.00 856.00,926.00
             856.00,926.00 856.00,20.00 856.00,20.00 Z
           M 1596.00,20.00
           C 1596.00,20.00 1960.00,20.00 1960.00,20.00
             1961.70,20.00 1965.11,19.86 1966.59,20.57
             1969.32,21.89 1972.95,31.91 1974.28,35.00
             1974.28,35.00 2070.00,269.00 2070.00,269.00
             2071.03,262.32 2165.28,35.00 2165.28,35.00
             2171.63,20.30 2170.21,20.02 2180.00,20.00
             2180.00,20.00 2541.00,20.00 2541.00,20.00
             2541.00,20.00 2227.65,527.00 2227.65,527.00
             2227.65,527.00 2227.00,535.00 2227.00,535.00
             2227.00,535.00 2227.00,926.00 2227.00,926.00
             2227.00,926.00 1899.00,926.00 1899.00,926.00
             1899.00,926.00 1899.00,535.00 1899.00,535.00
             1899.00,532.37 1899.13,529.52 1898.30,527.00
             1898.30,527.00 1598.17,27.43 1596.00,20.00 Z
           M 2559.00,20.00
           C 2559.00,20.00 2592.00,20.00 2592.00,20.00
             2592.00,20.00 2559.00,56.00 2559.00,56.00
             2559.00,56.00 2559.00,20.00 2559.00,20.00 Z
           M 2559.00,192.00
           C 2559.00,192.00 2559.00,117.00 2559.00,117.00
             2558.00,106.18 2563.93,103.73 2571.83,95.00
             2571.83,95.00 2632.00,30.00 2632.00,30.00
             2640.44,21.41 2638.87,20.02 2649.00,20.00
             2649.00,20.00 2718.00,20.00 2718.00,20.00
             2718.00,20.00 2559.00,192.00 2559.00,192.00 Z
           M 2559.00,327.00
           C 2559.00,327.00 2558.88,246.94 2559.60,245.00
             2560.97,241.29 2763.73,20.02 2775.00,20.00
             2775.00,20.00 2843.00,20.00 2843.00,20.00
             2839.75,27.62 2565.49,322.36 2559.00,327.00 Z
           M 3300.00,20.00
           C 3300.00,20.00 3346.00,20.00 3346.00,20.00
             3342.87,27.33 3300.00,71.00 3300.00,71.00
             3300.00,71.00 3300.00,20.00 3300.00,20.00 Z
           M 3300.00,206.00
           C 3300.00,206.00 3300.00,131.00 3300.00,131.00
             3300.00,128.91 3299.88,125.94 3300.60,124.00
             3301.90,120.47 3383.83,33.00 3383.83,33.00
             3391.11,24.95 3392.51,20.02 3404.00,20.00
             3404.00,20.00 3472.00,20.00 3472.00,20.00
             3468.55,27.34 3306.62,201.26 3300.00,206.00 Z
           M 3300.00,342.00
           C 3300.00,342.00 3300.00,267.00 3300.00,267.00
             3300.03,254.12 3307.60,251.19 3315.58,242.00
             3315.58,242.00 3507.72,35.00 3507.72,35.00
             3511.04,31.22 3518.55,22.23 3523.00,20.60
             3524.94,19.88 3527.91,20.00 3530.00,20.00
             3530.00,20.00 3598.00,20.00 3598.00,20.00
             3598.00,20.00 3589.42,31.00 3589.42,31.00
             3589.42,31.00 3300.00,342.00 3300.00,342.00 Z
           M 3300.00,477.00
           C 3300.00,477.00 3300.03,394.19 3300.03,394.19
             3300.03,394.19 3630.58,38.00 3630.58,38.00
             3630.58,38.00 3648.04,20.60 3648.04,20.60
             3648.04,20.60 3655.00,20.00 3655.00,20.00
             3655.00,20.00 3724.00,20.00 3724.00,20.00
             3724.00,20.00 3713.17,33.00 3713.17,33.00
             3713.17,33.00 3300.00,477.00 3300.00,477.00 Z
           M 3300.00,613.00
           C 3300.00,613.00 3300.00,538.00 3300.00,538.00
             3300.01,535.29 3299.84,532.55 3300.93,530.00
             3302.65,526.04 3307.92,521.14 3310.99,518.00
             3310.99,518.00 3660.91,141.00 3660.91,141.00
             3660.91,141.00 3705.09,93.00 3705.09,93.00
             3705.09,93.00 3738.83,57.00 3738.83,57.00
             3738.83,57.00 3760.99,33.00 3760.99,33.00
             3763.63,30.28 3767.69,24.85 3771.01,23.60
             3774.30,22.36 3785.97,24.19 3790.00,24.72
             3801.32,26.19 3828.34,29.47 3838.00,33.00
             3838.00,33.00 3823.17,50.00 3823.17,50.00
             3823.17,50.00 3786.09,90.00 3786.09,90.00
             3786.09,90.00 3727.91,153.00 3727.91,153.00
             3727.91,153.00 3682.17,202.00 3682.17,202.00
             3682.17,202.00 3648.00,239.00 3648.00,239.00
             3648.00,239.00 3634.00,252.98 3634.00,252.98
             3634.00,252.98 3620.00,254.00 3620.00,254.00
             3620.00,254.00 3619.41,268.00 3619.41,268.00
             3619.41,268.00 3609.00,281.00 3609.00,281.00
             3609.00,281.00 3593.04,298.00 3593.04,298.00
             3593.04,298.00 3542.04,353.00 3542.04,353.00
             3542.04,353.00 3495.91,403.00 3495.91,403.00
             3495.91,403.00 3300.00,613.00 3300.00,613.00 Z
           M 2885.00,30.00
           C 2885.00,30.00 2884.40,112.00 2884.40,112.00
             2884.40,112.00 2559.00,463.00 2559.00,463.00
             2559.00,463.00 2559.93,380.00 2559.93,380.00
             2559.93,380.00 2885.00,30.00 2885.00,30.00 Z
           M 3877.00,43.00
           C 3889.79,45.92 3921.33,59.35 3933.00,66.00
             3933.00,66.00 3908.09,94.00 3908.09,94.00
             3908.09,94.00 3857.09,149.00 3857.09,149.00
             3857.09,149.00 3780.09,232.00 3780.09,232.00
             3780.09,232.00 3754.09,260.00 3754.09,260.00
             3754.09,260.00 3739.00,275.00 3739.00,275.00
             3724.45,262.70 3701.00,255.06 3682.00,255.00
             3682.00,255.00 3695.58,239.00 3695.58,239.00
             3695.58,239.00 3732.83,199.00 3732.83,199.00
             3732.83,199.00 3783.91,144.00 3783.91,144.00
             3783.91,144.00 3828.09,96.00 3828.09,96.00
             3828.09,96.00 3855.04,67.00 3855.04,67.00
             3855.04,67.00 3877.00,43.00 3877.00,43.00 Z
           M 3751.00,397.00
           C 3760.77,376.69 3763.45,374.47 3765.09,351.00
             3765.33,347.56 3766.07,345.60 3765.82,342.00
             3765.22,333.66 3764.66,325.18 3762.77,317.00
             3761.96,313.55 3759.70,308.31 3761.11,305.00
             3762.33,302.14 3773.24,290.82 3775.99,288.00
             3775.99,288.00 3802.91,259.00 3802.91,259.00
             3802.91,259.00 3867.91,189.00 3867.91,189.00
             3867.91,189.00 3901.01,153.00 3901.01,153.00
             3901.01,153.00 3925.09,127.00 3925.09,127.00
             3925.09,127.00 3948.42,102.00 3948.42,102.00
             3948.42,102.00 3959.72,90.06 3959.72,90.06
             3961.59,88.13 3963.04,86.27 3966.01,87.00
             3968.48,87.60 3973.84,92.08 3976.00,93.80
             3983.57,99.83 3991.13,106.18 3998.00,113.00
             4000.59,115.58 4005.91,119.92 4004.79,124.00
             4003.77,127.70 3991.87,139.20 3988.58,143.00
             3988.58,143.00 3966.09,167.00 3966.09,167.00
             3966.09,167.00 3941.04,194.00 3941.04,194.00
             3941.04,194.00 3882.91,257.00 3882.91,257.00
             3882.91,257.00 3811.17,334.00 3811.17,334.00
             3811.17,334.00 3772.17,376.00 3772.17,376.00
             3767.38,381.30 3756.78,394.21 3751.00,397.00 Z
           M 3311.00,926.00
           C 3313.81,920.06 3319.31,915.91 3323.58,911.00
             3323.58,911.00 3359.91,872.00 3359.91,872.00
             3359.91,872.00 3430.09,796.00 3430.09,796.00
             3430.09,796.00 3463.83,760.00 3463.83,760.00
             3463.83,760.00 3565.91,650.00 3565.91,650.00
             3565.91,650.00 3752.09,449.00 3752.09,449.00
             3752.09,449.00 3816.09,380.00 3816.09,380.00
             3816.09,380.00 3836.83,358.00 3836.83,358.00
             3836.83,358.00 3932.09,255.00 3932.09,255.00
             3932.09,255.00 3965.83,219.00 3965.83,219.00
             3965.83,219.00 4004.72,177.00 4004.72,177.00
             4009.94,171.07 4023.77,154.95 4030.00,152.00
             4030.00,152.00 4042.69,174.00 4042.69,174.00
             4042.69,174.00 4049.77,189.00 4049.77,189.00
             4051.25,192.25 4055.91,201.80 4055.19,205.00
             4054.57,207.76 4051.07,210.89 4049.17,213.00
             4049.17,213.00 4034.42,229.00 4034.42,229.00
             4034.42,229.00 3971.28,297.00 3971.28,297.00
             3971.28,297.00 3921.09,351.00 3921.09,351.00
             3921.09,351.00 3844.09,434.00 3844.09,434.00
             3844.09,434.00 3767.09,517.00 3767.09,517.00
             3767.09,517.00 3730.01,557.00 3730.01,557.00
             3730.01,557.00 3708.91,580.00 3708.91,580.00
             3708.91,580.00 3664.09,628.00 3664.09,628.00
             3657.57,634.99 3641.32,654.54 3634.00,658.00
             3634.00,658.00 3620.00,631.00 3620.00,631.00
             3620.00,631.00 3620.00,668.00 3620.00,668.00
             3619.98,679.16 3615.78,679.70 3608.58,688.00
             3608.58,688.00 3390.12,924.13 3386.91,925.40
             3385.10,926.12 3381.99,926.00 3380.00,926.00
             3380.00,926.00 3311.00,926.00 3311.00,926.00 Z
           M 2884.00,165.00
           C 2885.82,169.60 2885.12,245.01 2884.41,247.00
             2882.72,251.73 2566.77,592.44 2559.00,598.00
             2559.00,598.00 2559.60,516.00 2559.60,516.00
             2559.60,516.00 2884.00,165.00 2884.00,165.00 Z
           M 3680.00,744.00
           C 3680.00,744.00 3659.25,705.00 3659.25,705.00
             3657.60,701.72 3652.87,694.43 3654.15,691.00
             3655.04,688.64 3659.12,684.93 3660.96,683.00
             3660.96,683.00 3676.72,666.00 3676.72,666.00
             3676.72,666.00 3740.83,597.00 3740.83,597.00
             3740.83,597.00 3829.91,501.00 3829.91,501.00
             3829.91,501.00 3970.91,349.00 3970.91,349.00
             3970.91,349.00 4035.83,279.00 4035.83,279.00
             4035.83,279.00 4057.00,256.00 4057.00,256.00
             4060.47,252.47 4063.57,248.28 4068.00,246.00
             4070.85,261.66 4074.81,284.38 4075.15,300.00
             4075.15,300.00 4075.15,319.00 4075.15,319.00
             4074.46,321.85 4071.16,324.78 4069.17,327.00
             4069.17,327.00 4056.17,341.00 4056.17,341.00
             4056.17,341.00 4004.17,397.00 4004.17,397.00
             4004.17,397.00 3928.09,479.00 3928.09,479.00
             3928.09,479.00 3786.09,632.00 3786.09,632.00
             3786.09,632.00 3735.09,687.00 3735.09,687.00
             3735.09,687.00 3711.01,713.00 3711.01,713.00
             3711.01,713.00 3694.28,731.00 3694.28,731.00
             3689.94,735.92 3686.05,741.14 3680.00,744.00 Z
           M 1183.00,423.00
           C 1183.00,423.00 1233.00,423.00 1233.00,423.00
             1233.00,423.00 1243.00,421.96 1243.00,421.96
             1243.00,421.96 1252.00,421.96 1252.00,421.96
             1264.57,420.63 1278.70,417.39 1290.00,411.73
             1302.23,405.60 1315.08,394.12 1321.51,382.00
             1325.12,375.19 1327.06,367.59 1328.13,360.00
             1332.21,330.90 1321.00,303.88 1296.00,287.70
             1283.37,279.53 1266.85,275.59 1252.00,274.04
             1252.00,274.04 1243.00,274.04 1243.00,274.04
             1243.00,274.04 1233.00,273.00 1233.00,273.00
             1233.00,273.00 1183.00,273.00 1183.00,273.00
             1183.00,273.00 1183.00,423.00 1183.00,423.00 Z
           M 2883.00,301.00
           C 2883.00,301.00 2885.00,301.00 2885.00,301.00
             2885.00,301.00 2884.40,383.00 2884.40,383.00
             2884.40,383.00 2559.00,734.00 2559.00,734.00
             2559.00,734.00 2558.94,651.38 2558.94,651.38
             2558.94,651.38 2883.00,301.00 2883.00,301.00 Z
           M 3300.00,748.00
           C 3300.00,748.00 3300.00,673.00 3300.00,673.00
             3300.00,670.91 3299.88,667.94 3300.60,666.00
             3301.73,662.93 3313.07,650.98 3316.00,648.00
             3316.00,648.00 3356.00,605.00 3356.00,605.00
             3356.00,605.00 3377.17,582.00 3377.17,582.00
             3377.17,582.00 3416.09,540.00 3416.09,540.00
             3416.09,540.00 3481.09,470.00 3481.09,470.00
             3481.09,470.00 3513.83,435.00 3513.83,435.00
             3513.83,435.00 3551.91,394.00 3551.91,394.00
             3551.91,394.00 3588.99,354.00 3588.99,354.00
             3588.99,354.00 3605.72,336.00 3605.72,336.00
             3610.06,331.08 3613.95,325.86 3620.00,323.00
             3620.00,323.00 3620.00,397.00 3620.00,397.00
             3620.00,397.00 3619.40,404.00 3619.40,404.00
             3619.40,404.00 3612.09,413.00 3612.09,413.00
             3612.09,413.00 3600.04,426.00 3600.04,426.00
             3600.04,426.00 3566.91,462.00 3566.91,462.00
             3566.91,462.00 3545.28,485.00 3545.28,485.00
             3545.28,485.00 3483.09,552.00 3483.09,552.00
             3483.09,552.00 3380.09,663.00 3380.09,663.00
             3380.09,663.00 3328.09,719.00 3328.09,719.00
             3328.09,719.00 3300.00,748.00 3300.00,748.00 Z
           M 4071.00,377.00
           C 4072.25,381.40 4069.95,389.37 4069.00,394.00
             4066.12,407.88 4061.48,422.85 4056.20,436.00
             4034.07,491.15 3990.70,534.96 3933.00,551.42
             3924.57,553.83 3913.70,556.29 3905.00,557.00
             3905.00,557.00 3924.00,535.00 3924.00,535.00
             3924.00,535.00 3952.83,504.00 3952.83,504.00
             3952.83,504.00 4016.91,435.00 4016.91,435.00
             4016.91,435.00 4071.00,377.00 4071.00,377.00 Z
           M 3739.00,409.00
           C 3738.94,413.14 3734.90,416.03 3732.28,419.00
             3732.28,419.00 3711.00,442.00 3711.00,442.00
             3711.00,442.00 3688.91,466.00 3688.91,466.00
             3688.91,466.00 3631.09,528.00 3631.09,528.00
             3631.09,528.00 3483.91,687.00 3483.91,687.00
             3483.91,687.00 3411.17,765.00 3411.17,765.00
             3411.17,765.00 3335.09,847.00 3335.09,847.00
             3328.20,854.39 3306.21,879.51 3300.00,884.00
             3300.00,884.00 3300.00,809.00 3300.00,809.00
             3300.00,806.84 3299.89,804.03 3300.58,802.00
             3302.36,796.83 3311.78,788.47 3315.72,784.00
             3315.72,784.00 3339.91,758.00 3339.91,758.00
             3339.91,758.00 3363.99,732.00 3363.99,732.00
             3363.99,732.00 3385.09,709.00 3385.09,709.00
             3385.09,709.00 3436.09,654.00 3436.09,654.00
             3436.09,654.00 3513.09,571.00 3513.09,571.00
             3513.09,571.00 3546.83,535.00 3546.83,535.00
             3546.83,535.00 3584.91,494.00 3584.91,494.00
             3584.91,494.00 3620.99,455.00 3620.99,455.00
             3620.99,455.00 3635.91,439.00 3635.91,439.00
             3638.21,436.54 3641.12,432.51 3644.01,431.02
             3646.38,429.81 3649.40,430.01 3652.00,430.00
             3652.00,430.00 3675.00,430.00 3675.00,430.00
             3697.95,429.73 3720.76,423.08 3739.00,409.00 Z
           M 2884.00,436.00
           C 2885.82,440.60 2885.12,516.01 2884.41,518.00
             2882.72,522.73 2566.36,863.73 2559.00,869.00
             2559.00,869.00 2559.06,786.25 2559.06,786.25
             2559.06,786.25 2884.00,436.00 2884.00,436.00 Z
           M 3726.00,831.00
           C 3726.00,831.00 3706.42,794.00 3706.42,794.00
             3704.63,790.82 3699.09,781.34 3699.81,778.00
             3700.48,774.88 3708.05,767.91 3710.58,765.00
             3710.58,765.00 3743.99,729.00 3743.99,729.00
             3743.99,729.00 3791.09,678.00 3791.09,678.00
             3791.09,678.00 3854.17,610.00 3854.17,610.00
             3854.17,610.00 3888.83,573.00 3888.83,573.00
             3891.32,570.24 3898.26,561.20 3901.90,561.20
             3904.47,561.20 3906.46,565.12 3907.69,567.00
             3907.69,567.00 3920.33,586.00 3920.33,586.00
             3920.33,586.00 3929.34,600.00 3929.34,600.00
             3930.78,602.23 3933.17,605.21 3932.73,608.00
             3932.30,610.76 3928.88,614.05 3926.99,616.00
             3926.99,616.00 3914.96,629.00 3914.96,629.00
             3914.96,629.00 3889.91,656.00 3889.91,656.00
             3889.91,656.00 3867.42,680.00 3867.42,680.00
             3867.42,680.00 3844.09,705.00 3844.09,705.00
             3844.09,705.00 3809.99,742.00 3809.99,742.00
             3809.99,742.00 3786.91,767.00 3786.91,767.00
             3786.91,767.00 3754.09,802.00 3754.09,802.00
             3747.16,809.44 3733.36,825.73 3726.00,831.00 Z
           M 2885.00,571.73
           C 2885.00,571.73 2885.00,631.00 2885.00,631.00
             2885.00,631.00 2905.00,631.00 2905.00,631.00
             2901.42,638.63 2892.90,645.62 2887.28,652.00
             2887.28,652.00 2636.61,923.70 2632.00,925.40
             2630.06,926.12 2627.09,926.00 2625.00,926.00
             2625.00,926.00 2559.00,926.00 2559.00,926.00
             2560.09,919.16 2565.32,914.75 2570.00,910.00
             2570.00,910.00 2885.00,571.73 2885.00,571.73 Z
           M 2682.00,926.00
           C 2686.46,918.97 2937.96,649.00 2937.96,649.00
             2942.08,644.69 2950.91,633.47 2956.00,631.60
             2957.94,630.88 2960.91,631.00 2963.00,631.00
             2963.00,631.00 3031.00,631.00 3031.00,631.00
             3027.91,637.54 3016.44,648.18 3011.17,654.00
             3011.17,654.00 2961.09,708.00 2961.09,708.00
             2961.09,708.00 2761.31,924.18 2758.00,925.40
             2756.07,926.11 2753.08,926.00 2751.00,926.00
             2751.00,926.00 2682.00,926.00 2682.00,926.00 Z
           M 2808.00,926.00
           C 2810.65,920.40 2824.00,907.19 2828.96,902.00
             2828.96,902.00 3063.72,649.00 3063.72,649.00
             3066.61,645.72 3077.88,632.87 3081.09,631.60
             3082.90,630.88 3086.01,631.00 3088.00,631.00
             3088.00,631.00 3157.00,631.00 3157.00,631.00
             3154.35,636.60 2887.12,924.13 2883.91,925.40
             2882.10,926.12 2808.00,926.00 2808.00,926.00 Z
           M 3200.00,638.00
           C 3201.82,642.60 3201.00,656.34 3201.00,662.00
             3201.00,662.00 3201.00,713.00 3201.00,713.00
             3200.98,723.79 3198.22,723.13 3191.28,731.00
             3191.28,731.00 3026.09,909.00 3026.09,909.00
             3022.22,913.15 3013.93,923.59 3009.00,925.40
             3007.06,926.12 3004.09,926.00 3002.00,926.00
             3002.00,926.00 2934.00,926.00 2934.00,926.00
             2934.00,926.00 2942.58,915.00 2942.58,915.00
             2942.58,915.00 3200.00,638.00 3200.00,638.00 Z
           M 3772.00,917.00
           C 3772.00,917.00 3752.14,880.00 3752.14,880.00
             3750.12,876.35 3744.59,868.10 3745.70,864.00
             3746.41,861.40 3757.45,849.71 3760.04,847.00
             3760.04,847.00 3793.58,811.00 3793.58,811.00
             3793.58,811.00 3829.91,772.00 3829.91,772.00
             3829.91,772.00 3935.58,658.00 3935.58,658.00
             3939.77,653.17 3949.75,641.54 3955.00,639.00
             3955.00,639.00 3977.33,673.00 3977.33,673.00
             3979.24,675.87 3985.37,683.83 3984.99,687.00
             3984.68,689.57 3981.76,692.16 3980.08,694.00
             3980.08,694.00 3824.17,862.00 3824.17,862.00
             3824.17,862.00 3788.04,901.00 3788.04,901.00
             3782.19,907.13 3779.24,911.81 3772.00,917.00 Z
           M 4006.00,718.00
           C 4009.91,721.65 4037.04,763.13 4036.93,766.00
             4036.80,769.74 3900.00,916.00 3900.00,916.00
             3891.63,924.51 3892.83,925.98 3883.00,926.00
             3883.00,926.00 3814.00,926.00 3814.00,926.00
             3816.57,920.56 4006.00,718.00 4006.00,718.00 Z
           M 3437.00,926.00
           C 3439.83,920.01 3450.05,910.13 3454.96,905.00
             3454.96,905.00 3481.91,876.00 3481.91,876.00
             3481.91,876.00 3570.96,780.00 3570.96,780.00
             3570.96,780.00 3590.17,759.00 3590.17,759.00
             3590.17,759.00 3600.58,748.00 3600.58,748.00
             3604.77,743.17 3614.75,731.54 3620.00,729.00
             3620.00,729.00 3620.00,803.00 3620.00,803.00
             3620.00,805.16 3620.11,807.97 3619.42,810.00
             3617.64,815.17 3608.22,823.53 3604.28,828.00
             3604.28,828.00 3554.09,882.00 3554.09,882.00
             3554.09,882.00 3527.28,911.00 3527.28,911.00
             3523.96,914.78 3516.45,923.77 3512.00,925.40
             3510.06,926.12 3507.09,926.00 3505.00,926.00
             3505.00,926.00 3437.00,926.00 3437.00,926.00 Z
           M 3200.00,773.00
           C 3201.82,777.60 3201.00,848.00 3201.00,848.00
             3200.98,859.46 3195.55,862.14 3188.04,870.00
             3188.04,870.00 3147.17,914.00 3147.17,914.00
             3140.02,921.90 3139.24,925.98 3128.00,926.00
             3128.00,926.00 3060.00,926.00 3060.00,926.00
             3063.29,919.00 3070.64,912.66 3075.91,907.00
             3075.91,907.00 3200.00,773.00 3200.00,773.00 Z
           M 3940.00,926.00
           C 3942.33,921.07 3945.07,919.05 3948.58,915.00
             3948.58,915.00 4055.45,798.37 4058.82,799.34
             4060.81,799.90 4062.88,803.34 4064.00,805.00
             4064.00,805.00 4085.67,838.00 4085.67,838.00
             4087.06,840.12 4089.57,843.34 4089.13,846.00
             4088.71,848.52 4085.73,851.19 4084.03,853.00
             4084.03,853.00 4019.71,923.67 4015.00,925.40
             4013.06,926.12 4010.09,926.00 4008.00,926.00
             4008.00,926.00 3940.00,926.00 3940.00,926.00 Z
           M 3563.00,926.00
           C 3566.29,919.00 3612.84,868.38 3620.00,865.00
             3620.00,865.00 3620.00,926.00 3620.00,926.00
             3620.00,926.00 3563.00,926.00 3563.00,926.00 Z
           M 4110.00,877.00
           C 4110.00,877.00 4142.00,926.00 4142.00,926.00
             4142.00,926.00 4066.00,926.00 4066.00,926.00
             4069.29,919.00 4110.00,877.00 4110.00,877.00 Z
           M 3200.00,909.00
           C 3200.00,909.00 3201.00,926.00 3201.00,926.00
             3201.00,926.00 3185.00,926.00 3185.00,926.00
             3185.00,926.00 3200.00,909.00 3200.00,909.00 Z" />
</svg>
