<svg width="768" height="854" viewBox="0 0 768 854" fill="none" xmlns="http://www.w3.org/2000/svg">
    <path d="M768 619C768 635.213 759.04 649.293 745.387 656.547L408.32 845.987C401.493 851.107 392.96 853.667 384 853.667C375.04 853.667 366.507 851.107 359.68 845.987L22.6133 656.547C8.95999 649.293 0 635.213 0 619V235C0 218.787 8.95999 204.707 22.6133 197.453L359.68 8.01334C366.507 2.89334 375.04 0.333344 384 0.333344C392.96 0.333344 401.493 2.89334 408.32 8.01334L745.387 197.453C759.04 204.707 768 218.787 768 235V619ZM85.3333 299V555H138.667V469.667H170.667C217.6 469.667 256 431.267 256 384.333C256 337.4 217.6 299 170.667 299H85.3333ZM138.667 427V341.667H160C183.467 341.667 202.667 360.867 202.667 384.333C202.667 407.8 183.467 427 160 427H138.667ZM288 299V555H341.333V469.667H373.333L401.493 555H457.813L424.107 453.027C445.013 437.667 458.667 412.493 458.667 384.333C458.667 337.4 420.267 299 373.333 299H288ZM341.333 427V341.667H362.667C386.133 341.667 405.333 360.867 405.333 384.333C405.333 407.8 386.133 427 362.667 427H341.333ZM597.333 299C538.453 299 490.667 356.173 490.667 427C490.667 497.827 538.453 555 597.333 555C656.213 555 704 497.827 704 427C704 356.173 656.213 299 597.333 299ZM597.333 352.333C629.76 352.333 656.213 385.613 656.213 427C656.213 468.387 629.76 501.667 597.333 501.667C564.907 501.667 538.88 468.387 538.88 427C538.88 385.613 564.907 352.333 597.333 352.333Z" fill="#3C5EAB"/>
    </svg>
